<svg xmlns="http://www.w3.org/2000/svg" version="1.1" xmlns:xlink="http://www.w3.org/1999/xlink" xmlns:svgjs="http://svgjs.com/svgjs" width="1000" height="1000"><rect width="1000" height="1000" rx="500" ry="500" fill="#fa00d9"></rect><g transform="matrix(17.77777777777778,0,0,17.77777777777778,72.8599545160929,90.97226572036743)"><svg xmlns="http://www.w3.org/2000/svg" version="1.1" xmlns:xlink="http://www.w3.org/1999/xlink" xmlns:svgjs="http://svgjs.com/svgjs" width="44" height="45"><svg width="44" height="45" viewBox="0 0 44 45" fill="none" xmlns="http://www.w3.org/2000/svg">
<path fill-rule="evenodd" clip-rule="evenodd" d="M17.0381 39.3372C18.8019 41.1848 21.6066 41.8106 24.0632 40.6939L35.6693 35.4183C39.238 33.7962 40.8154 29.5887 39.1934 26.0203L37.018 21.2343L37.3773 21.071C40.4829 19.6593 41.8563 15.9971 40.4445 12.8912C39.5836 10.9972 37.8857 9.74752 35.9875 9.38086C36.4535 9.86898 36.8468 10.4424 37.1419 11.0914C38.5537 14.1973 37.1803 17.8595 34.0747 19.2712L33.7154 19.4345L35.8908 24.2205C37.5128 27.7889 35.9353 31.9964 32.3667 33.6185L20.7606 38.8941C19.5489 39.4449 18.2525 39.5718 17.0381 39.3372Z" fill="#3BF93B"></path>
<path d="M11.516 24.7331L9.34064 19.9471C7.71861 16.3787 9.29607 12.1712 12.8647 10.5491L24.2316 5.38224C27.3373 3.97051 30.9994 5.34375 32.4112 8.44951C33.8229 11.5554 32.4496 15.2176 29.3439 16.6293L28.9847 16.7926L31.1601 21.5786C32.7821 25.147 31.2046 29.3545 27.6359 30.9766L16.0299 36.2522C12.9242 37.6639 9.2621 36.2907 7.85032 33.1848C6.43856 30.0791 7.81193 26.4169 10.9176 25.0052L11.516 24.7331Z" stroke="#3BF93B" stroke-width="3.12601"></path>
</svg></svg></g></svg>